<?xml version="1.0" encoding="UTF-8" standalone="no"?>
<!-- Created with Inkscape (http://www.inkscape.org/) -->

<svg
   width="279.15552mm"
   height="200.00128mm"
   viewBox="0 0 279.15553 200.00129"
   version="1.1"
   id="svg1"
   inkscape:version="1.4.3 (0d15f75, 2025-12-25)"
   sodipodi:docname="drawing.svg"
   xml:space="preserve"
   xmlns:inkscape="http://www.inkscape.org/namespaces/inkscape"
   xmlns:sodipodi="http://sodipodi.sourceforge.net/DTD/sodipodi-0.dtd"
   xmlns:xlink="http://www.w3.org/1999/xlink"
   xmlns="http://www.w3.org/2000/svg"
   xmlns:svg="http://www.w3.org/2000/svg"><sodipodi:namedview
     id="namedview1"
     pagecolor="#ffffff"
     bordercolor="#999999"
     borderopacity="1"
     inkscape:showpageshadow="2"
     inkscape:pageopacity="0"
     inkscape:pagecheckerboard="0"
     inkscape:deskcolor="#d1d1d1"
     inkscape:document-units="mm"
     inkscape:zoom="0.76536276"
     inkscape:cx="667.65726"
     inkscape:cy="315.53665"
     inkscape:window-width="2560"
     inkscape:window-height="1417"
     inkscape:window-x="-8"
     inkscape:window-y="-8"
     inkscape:window-maximized="1"
     inkscape:current-layer="layer1"
     showgrid="false"
     inkscape:export-bgcolor="#ffffff00"><inkscape:grid
       id="grid2"
       units="mm"
       originx="-0.97777748"
       originy="0"
       spacingx="0.26458335"
       spacingy="0.26458334"
       empcolor="#0099e5"
       empopacity="0.30196078"
       color="#0099e5"
       opacity="0.14901961"
       empspacing="5"
       enabled="true"
       visible="false" /><inkscape:page
       x="2.515878e-23"
       y="0"
       width="279.15555"
       height="200.0013"
       id="page2"
       margin="0"
       bleed="0" /></sodipodi:namedview><defs
     id="defs1"><linearGradient
       id="linearGradient39"
       inkscape:collect="always"><stop
         style="stop-color:#fe0000;stop-opacity:1;"
         offset="0"
         id="stop39" /><stop
         style="stop-color:#ff0000;stop-opacity:0.64784944;"
         offset="1"
         id="stop40" /></linearGradient><radialGradient
       inkscape:collect="always"
       xlink:href="#linearGradient39"
       id="radialGradient40"
       cx="140"
       cy="80.62706"
       fx="140"
       fy="80.62706"
       r="58.953819"
       gradientTransform="matrix(1,0,0,1.322751,0,-26.022464)"
       gradientUnits="userSpaceOnUse" /></defs><g
     inkscape:label="Layer 1"
     inkscape:groupmode="layer"
     id="layer1"
     transform="translate(-0.97777746)"><rect
       style="fill:#ffffff;stroke:#ffffff;stroke-width:3.5259;stroke-linejoin:round;stroke-opacity:0"
       id="rect1"
       width="245.87408"
       height="76.474098"
       x="18.596285"
       y="83.862946" /><rect
       style="fill:#000000;fill-opacity:1;stroke:none;stroke-width:0.431638;stroke-linejoin:round;stroke-dasharray:none;stroke-opacity:1"
       id="rect21"
       width="279.15555"
       height="200.0013"
       x="0.97777754"
       y="0" /><path
       d="m 125.15937,37.888335 c -0.30956,-1.03347 -6.7437,-2.86703 -10.77516,-0.28337 -0.7239,-1.34303 7.15804,-5.40068 12.01579,-4.88395 -1.3454,-3.20278 -8.47725,-3.40995 -10.85374,-3.51472 2.58366,-4.44341 15.19238,-1.44542 16.98784,2.06692 2.83131,3.82429 -8.3177,13.33262 -15.55432,11.06091 0.80962,-0.20717 7.45569,-2.58366 8.17959,-4.44579 m -18.7071,-24.28637 c 3.71951,-9.3702215 23.56485,-8.1653115 30.59192,-0.95727 0,0 -1.56686,-9.2773415 9.40594,-9.9988616 -6.046,12.2467616 2.27409,18.1379816 2.27409,18.1379816 l -2.99799,4.70297 C 129.66708,13.718645 112.38396,8.3465435 106.45227,13.601965 M 81.853956,100.93431 c -5.37448,-19.221455 17.72602,-55.654575 20.514474,-60.926665 0,0 -14.675654,9.35355 -18.242764,21.44554 -4.23624,-8.03434 8.47725,-32.86602 25.996114,-41.29088 0,0 -4.72917,-0.85249 -6.27936,-1.31683 16.27823,-12.2467715 38.36908,5.19351 29.48226,9.74169 -7.44141,-13.23022 -23.28863,-6.96277 -23.56485,3.51473 -0.11192,4.19814 7.69858,15.60433 4.39102,20.35969 -10.54179,2.48126 -30.229974,31.73015 -32.296894,48.472725 M 126.4,149.30465 c -21.39553,-15.8115 -2.00501,-58.659725 15.19238,-65.732035 -1.08585,4.18623 -1.70498,7.4414 0,7.75097 1.70497,0.30956 6.50081,0.92868 6.50081,0.92868 C 118.13945,112.98345 119.57772,137.83179 126.4,149.30465 m -20.77402,-20.46446 c -12.611104,-20.05013 18.30467,-59.724145 27.36056,-59.116925 0,0 -4.41722,8.93921 -2.09312,9.30116 2.79321,0.20717 8.99398,3.10277 8.99398,3.10277 -13.64218,6.73655 -36.52361,25.784185 -34.26142,46.712995 M 92.602916,118.2984 c -9.09637,-17.05214 10.487034,-55.914155 26.872414,-61.495805 2.12169,-12.40155 26.2509,-28.21543 26.2509,-28.21543 -4.75298,6.61512 -18.39754,26.87241 -14.88282,37.82854 -11.98721,3.30518 -38.840564,29.76801 -38.240494,51.882695 M 187.67671,92.345135 c -1.40256,-0.29765 -1.63354,-3.34565 -2.39078,-7.68667 -0.85249,-4.8768 5.88407,-9.34403 6.59844,-10.59418 1.21206,3.77428 -3.10515,13.96365 -4.20766,18.28085 m -9.59882,15.256685 c -5.95313,0.13097 -17.25454,-5.94837 -19.87153,-11.110925 14.80661,1.14538 18.65471,-0.26194 23.84821,-4.08146 2.42888,-0.13574 4.61963,1.60496 5.76025,2.97894 0.65722,4.47913 -3.30041,12.072955 -9.73693,12.213445 M 164.34046,91.075935 c 0.38576,-0.0262 1.0406,-0.0738 1.8669,-0.13335 1.33826,-0.10478 3.12182,-0.25718 4.90299,-0.44768 1.78118,-0.18812 3.55997,-0.41434 4.89347,-0.66675 0.66913,-0.12621 1.22634,-0.26194 1.62401,-0.40243 0.19765,-0.0667 0.36433,-0.15002 0.47625,-0.21193 0.13097,-0.0953 0.19288,-0.1524 0.19288,-0.1524 l -0.43815,-0.43815 c 0,0 -0.0286,0.007 -0.0691,0.0381 -0.0738,0.0286 -0.18573,0.0738 -0.36195,0.11668 -0.34528,0.0881 -0.88582,0.16907 -1.53828,0.2286 -1.30969,0.12144 -3.08372,0.17859 -4.85537,0.20002 -1.77403,0.0214 -3.55045,0.005 -4.88156,-0.0167 -1.3216,-0.0286 -2.20504,-0.05 -2.20504,-0.05 l 0.0143,1.70022 c -1.21682,-0.80248 -2.29553,-1.78118 -3.23612,-2.93608 0.84296,-0.0619 5.15064,-0.38339 9.45118,-0.87869 1.19777,-0.13811 2.39792,-0.29051 3.51711,-0.45243 1.12395,-0.16193 2.16932,-0.34052 3.06228,-0.51197 0.44768,-0.10001 0.85725,-0.18812 1.22159,-0.26908 0.36195,-0.10478 0.67627,-0.19288 0.93583,-0.26908 0.26193,-0.0857 0.46672,-0.18574 0.60722,-0.24051 0.13811,-0.0571 0.21193,-0.0881 0.21193,-0.0881 l -0.27623,-0.5572 c 0,0 -0.0643,0.0238 -0.1905,0.0619 -0.1262,0.0381 -0.30003,0.10715 -0.54292,0.16906 -0.25003,0.0524 -0.55483,0.1143 -0.9025,0.18574 -0.35718,0.05 -0.75723,0.10716 -1.19776,0.17145 -0.88583,0.1024 -1.92405,0.20003 -3.04086,0.27385 -1.11919,0.0738 -2.31458,0.13811 -3.50996,0.18335 -4.78393,0.18574 -9.57501,0.15955 -9.57501,0.15955 l 0.0619,1.8669 c -0.72628,-0.92155 -1.36207,-1.95977 -1.91691,-3.10277 0.16431,-0.007 0.40958,-0.019 0.74534,-0.0357 0.63103,-0.0405 1.51685,-0.1024 2.5646,-0.19765 2.09788,-0.1905 4.88633,-0.4953 7.66525,-0.88344 1.38588,-0.19526 2.77415,-0.40719 4.06955,-0.63818 1.29778,-0.23098 2.50508,-0.46672 3.53378,-0.7239 0.51673,-0.11191 0.98345,-0.25955 1.40017,-0.37623 0.41672,-0.10716 0.77391,-0.2667 1.07156,-0.36433 0.29528,-0.0976 0.52626,-0.24765 0.68104,-0.31433 0.15478,-0.0786 0.23813,-0.12144 0.23813,-0.12144 l -0.31433,-0.53578 c 0,0 -0.0762,0.0333 -0.21669,0.0905 -0.14764,0.05 -0.331,0.1643 -0.62151,0.23812 -0.28813,0.0738 -0.61912,0.20003 -1.03346,0.27861 -0.40958,0.0857 -0.86678,0.19526 -1.38113,0.27146 -1.01441,0.18574 -2.21932,0.33814 -3.50996,0.48339 -1.29302,0.14288 -2.67652,0.26194 -4.06241,0.36434 -2.76939,0.20002 -5.54831,0.32146 -7.62714,0.37147 -1.04061,0.0238 -1.90024,0.0286 -2.48841,0.0286 -0.6096,-0.0119 -0.95726,-0.0167 -0.95726,-0.0167 l 0.0214,1.60496 c -0.32147,-0.70723 -0.62389,-1.43828 -0.88106,-2.22409 l -0.0619,-0.18335 c -0.081,-0.24051 0.0214,-0.61675 0.28813,-1.05728 0.15716,-0.25956 0.381,-0.54531 0.6477,-0.84058 l -0.01,1.03108 c 0,0 0.27384,-0.007 0.75247,-0.0214 0.47149,-0.01 1.16205,-0.0405 1.99787,-0.0976 0.8382,-0.0429 1.7907,-0.12382 2.81702,-0.20479 1.02632,-0.0833 2.11455,-0.19764 3.20754,-0.30003 1.09062,-0.12859 2.17885,-0.23099 3.19802,-0.37386 0.51197,-0.0667 1.00489,-0.13335 1.47162,-0.19764 0.46672,-0.0571 0.90725,-0.14288 1.31445,-0.20717 0.40719,-0.0643 0.78105,-0.12859 1.11204,-0.18336 0.33099,-0.0738 0.61912,-0.13811 0.85487,-0.1905 0.47625,-0.10716 0.74533,-0.16669 0.74533,-0.16669 l -0.14526,-0.60245 c 0,0 -0.26432,0.0381 -0.73104,0.10953 -0.23098,0.0333 -0.51197,0.0762 -0.83344,0.12621 -0.33099,0.031 -0.70009,0.0643 -1.10728,0.10239 -0.40481,0.0333 -0.84058,0.0881 -1.30731,0.11192 -0.46672,0.0286 -0.95726,0.0595 -1.46685,0.0905 -1.01441,0.0691 -2.10502,0.0929 -3.19087,0.14526 -1.08823,0.0262 -2.17408,0.0619 -3.19326,0.0714 -1.01917,0.007 -1.97167,0.0238 -2.77177,0.007 -0.78105,-0.002 -1.43828,-0.0167 -1.91691,-0.0429 2.51698,-2.25028 7.59381,-5.04111 14.31846,-6.47462 0.39529,0.84773 1.06918,1.67402 1.79784,2.02406 2.58366,1.23825 11.84434,4.10766 7.6581,11.85863 -1.75498,3.25041 -4.4958,5.6388 -7.92718,7.06755 -4.28149,0.13811 -7.85812,-0.67389 -10.71801,-2.43126 m 15.10665,-36.18309 c 0.36434,-0.49292 1.10967,-2.02883 2.06693,-2.43602 1.12395,-0.47863 0.43815,2.24076 0.0405,4.10289 l -0.0738,0.27385 c -0.12144,-0.11668 -0.2405,-0.23098 -0.36433,-0.34766 -0.54769,-0.5215 -1.1049,-1.0549 -1.66926,-1.59306 m 11.75624,39.25967 c 3.40995,2.13122 5.73405,3.37185 5.73405,3.37185 -2.79083,-6.51034 -2.16932,-23.25529 -0.77391,-23.25529 1.55019,1.70498 2.79083,2.94561 2.79083,2.94561 0,0 -9.30117,-16.70209 -9.14639,-23.0005 2.94561,0.0572 3.28613,5.0173 3.28613,5.0173 0,0 2.24314,-12.29916 -11.34904,-23.25529 2.48126,-2.79083 5.27209,-0.61913 5.27209,-0.61913 0,0 -5.9436,-15.96866 -16.81163,-18.91426 -0.6049,-4.393381 4.25285,-4.805331 4.25285,-4.805331 -9.61073,-3.6171205 -14.77804,4.650581 -14.77804,4.650581 -7.4414,-2.1717 -8.68204,-11.0085215 -6.09838,-13.0754515 -8.37247,1.08585 -10.28462,21.2931415 12.97067,23.3076815 2.47888,5.57689 16.10677,20.73116 17.12833,22.00037 -0.74771,-1.11681 -5.29828,0.62388 -7.98671,2.74082 -7.11994,-6.98897 -14.9233,-15.40669 -21.16455,-26.0866 l -1.06918,0.62389 c 7.96528,13.63504 18.40944,23.58866 26.80096,31.5849 5.79835,5.52688 10.38463,9.89647 12.39917,13.78029 l -0.0119,0.005 c -1.49781,0.77629 -3.18612,-0.59055 -3.05753,-2.4503 l -8.62012,0.43576 c 0,0 -0.62151,3.87668 -4.18624,1.85976 -1.03584,-0.58341 -1.80975,-0.85487 -2.36934,-0.90487 -0.0119,-0.0238 -0.019,-0.0429 -0.031,-0.0667 -0.11668,-0.25718 -0.25718,-0.56674 -0.42148,-0.92155 -0.19289,-0.33814 -0.41434,-0.71914 -0.65247,-1.13585 -0.22383,-0.42863 -0.5453,-0.84059 -0.85725,-1.2954 -0.3048,-0.46197 -0.67389,-0.90964 -1.06203,-1.36684 -0.37386,-0.47625 -0.80487,-0.92155 -1.2454,-1.37398 -0.42624,-0.46911 -0.91678,-0.88107 -1.38589,-1.31922 -0.47148,-0.43576 -0.98583,-0.81915 -1.46923,-1.22634 -0.50958,-0.36909 -1.00012,-0.75486 -1.50018,-1.08823 -0.98822,-0.68104 -1.95025,-1.26444 -2.79321,-1.73117 -0.8382,-0.46434 -1.55496,-0.81915 -2.07169,-1.05489 -2.08597,-2.59795 -2.49793,-5.36258 -4.24339,-7.85813 -2.1717,-3.10039 -9.19876,0.80248 -14.08271,3.12658 0.6477,1.31922 4.46961,-0.12858 4.46961,-0.12858 0,0 1.75736,5.89121 7.85574,7.23423 -2.16932,-1.85975 -3.82429,-3.40995 -3.92668,-4.65058 3.40995,2.06693 5.47688,0.51673 5.47688,0.51673 0.70485,1.23349 1.95262,2.06931 3.15277,2.62652 l -0.10239,0.26908 c 0,0 0.0738,0.0262 0.20717,0.0738 0.12858,0.0452 0.31908,0.11907 0.56673,0.21908 0.4953,0.19764 1.19777,0.50244 2.02645,0.90964 0.82629,0.40719 1.77641,0.92154 2.75987,1.52876 0.49768,0.29765 0.98345,0.64294 1.49066,0.97393 0.48101,0.36671 0.99536,0.71437 1.46685,1.10728 0.4691,0.40005 0.9644,0.77391 1.39065,1.20253 0.44291,0.41434 0.88106,0.82153 1.2573,1.2573 0.39529,0.42148 0.7739,0.83582 1.08347,1.26206 0.31908,0.42149 0.65008,0.80249 0.88344,1.20254 0.25003,0.38814 0.47863,0.74533 0.68342,1.05965 0.14287,0.27861 0.2667,0.51911 0.37624,0.73343 -0.43101,0.18573 -0.57865,0.62865 -0.53102,1.17157 -8.15102,1.76451 -14.66612,5.64118 -16.48301,8.65823 -0.47149,0.77867 -0.60484,1.48352 -0.40244,2.09073 l 0.0595,0.1786 c 2.83369,8.59155 8.93683,11.65146 15.0495,12.32297 -4.06241,0.81677 -8.78919,0.53578 -13.84935,-0.96679 v 0.40958 c -0.9144,2.01691 -0.17859,5.36495 1.76451,9.234495 -3.61236,0.48816 -10.04649,1.25254 -10.60133,0.58579 -0.77628,-0.92869 0.30957,-9.727425 0.30957,-9.727425 -11.93721,5.853115 -25.76037,47.286875 -0.9406,64.455695 -4.84584,-9.50834 -16.21155,-42.5839 10.76087,-52.50419 -6.87467,15.13999 -8.0129,38.50005 4.28863,40.56698 -6.74132,-10.67038 0.56674,-26.12469 4.76488,-31.45631 7.15804,7.65095 16.99974,14.42085 26.71286,15.14713 -4.34102,-1.85976 -14.16606,-8.96303 -9.77503,-20.12395 4.03146,3.8743 6.82228,1.5502 6.82228,1.5502 -3.10039,-4.96015 -3.56473,-15.425755 -0.46434,-17.635555"
       fill="#0b0b09"
       id="path1"
       style="fill:url(#radialGradient40);fill-opacity:1;stroke-width:0.264583" /><text
       xml:space="preserve"
       style="font-size:50.8px;line-height:1.25;font-family:sans-serif;fill:#000000;fill-opacity:1;stroke:#ffffff;stroke-width:0.265;stroke-dasharray:none;stroke-opacity:1"
       x="23.164204"
       y="113.53818"
       id="text1"><tspan
         sodipodi:role="line"
         id="tspan1"
         style="font-style:normal;font-variant:normal;font-weight:600;font-stretch:normal;font-size:50.8px;font-family:'Google Sans Flex';-inkscape-font-specification:'Google Sans Flex Semi-Bold';fill:#ffffff;fill-opacity:1;stroke:#ffffff;stroke-width:0.265;stroke-dasharray:none;stroke-opacity:1"
         x="23.164204"
         y="113.53818">SyroySync</tspan></text><text
       xml:space="preserve"
       style="font-size:10.5833px;line-height:1.25;font-family:sans-serif;stroke-width:0.264583"
       x="106.26829"
       y="186.67618"
       id="text4"><tspan
         sodipodi:role="line"
         id="tspan4"
         style="font-style:normal;font-variant:normal;font-weight:200;font-stretch:normal;font-family:'Google Sans Flex';-inkscape-font-specification:'Google Sans Flex Ultra-Light';fill:#ffffff;fill-opacity:1;stroke-width:0.264583"
         x="106.26829"
         y="186.67618">A Syroy Product</tspan></text><g
       id="g40"
       inkscape:export-filename="Syroy Logo.svg"
       inkscape:export-xdpi="96"
       inkscape:export-ydpi="96"><g
         id="g37"
         transform="matrix(1.4699363,0,0,1.4699363,147.06962,-268.25397)"><path
           d="m 36.816357,309.78574 0.548287,1.08469 0.716752,-1.92443 z"
           style="fill:#897700;fill-opacity:1;stroke-width:0.264999;stroke-linejoin:round"
           id="path37" /><path
           d="m 42.797904,309.14599 -2.285131,-1.81333 -2.431377,1.61334 -0.716752,1.92443 -0.548287,-1.08469 -3.571875,2.36988 9.96115,-1.54616 z"
           style="fill:#008398;fill-opacity:1;stroke-width:0.264999;stroke-linejoin:round"
           id="path36" /><path
           d="m 42.797904,309.14599 0.407728,1.46347 1.201477,-0.18655 z"
           style="fill:#ffffff;stroke-width:0.264999;stroke-linejoin:round"
           id="path35" /><path
           d="m 42.015007,306.33582 0.782897,2.81017 1.609205,1.27692 -1.201477,0.18655 1.150317,4.12895 1.60817,-9.95185 -1.517736,-0.0641 z"
           style="fill:#008954;fill-opacity:1;stroke-width:0.264999;stroke-linejoin:round"
           id="path34" /><path
           d="m 44.446383,304.72249 1.517736,0.0641 0.193787,-1.19992 z"
           style="fill:#be0fff;fill-opacity:1;stroke-width:0.264999;stroke-linejoin:round"
           id="path33" /><path
           d="m 41.278617,300.3641 -0.5302,1.42368 0.782898,2.81068 2.915068,0.12403 1.711523,-1.13585 -0.193787,1.19992 4.28191,0.18191 z"
           style="fill:#8a7700;fill-opacity:1;stroke-width:0.264999;stroke-linejoin:round"
           id="path32" /><path
           d="m 41.278617,300.3641 -1.081587,-0.55501 0.551387,1.97869 z"
           style="fill:#008398;fill-opacity:1;stroke-width:0.264999;stroke-linejoin:round"
           id="path31" /><path
           d="m 40.748417,301.78778 -1.019059,2.7342 1.801957,0.0765 z"
           style="fill:#ffffff;fill-opacity:0;stroke-width:0.264999;stroke-linejoin:round"
           id="path30" /><path
           d="m 42.77465,296.3478 -7.149951,7.10603 1.190625,0.94464 2.914034,0.12351 1.019059,-2.7342 -0.551387,-1.97869 1.081587,0.55501 z"
           style="fill:#e90064;fill-opacity:1;fill-rule:nonzero;stroke-width:0.264999;stroke-linejoin:round"
           id="path29" /><path
           d="m 36.815324,304.39847 -1.190625,-0.94464 -0.86248,0.85731 z"
           style="fill:#db00b5;fill-opacity:1;stroke-width:0.264999;stroke-linejoin:round"
           id="path28" /><path
           d="m 36.816357,309.78574 1.265039,-0.83974 1.018543,-2.7342 -2.284615,-1.81333 -2.053105,-0.0873 0.86248,-0.85731 -3.357418,-2.66444 z"
           style="fill:#be0cff;fill-opacity:1;stroke-width:0.264999;stroke-linejoin:round"
           id="path27" /></g></g><text
       xml:space="preserve"
       style="font-size:22.5778px;line-height:1.25;font-family:sans-serif;stroke-width:0.264583"
       x="59.478409"
       y="152.83708"
       id="text2"><tspan
         sodipodi:role="line"
         id="tspan2"
         style="font-style:normal;font-variant:normal;font-weight:300;font-stretch:normal;font-size:22.5778px;font-family:'Google Sans Flex';-inkscape-font-specification:'Google Sans Flex Light';fill:#ffffff;fill-opacity:1;stroke-width:0.264583"
         x="59.478409"
         y="152.83708">-  Lion Edition</tspan></text><g
       style="fill:#ff0000;fill-opacity:1;stroke-width:1.00346;stroke-dasharray:none"
       id="g38"
       transform="matrix(0.02890006,0,0,0.02890006,212.96083,157.60231)"><path
         d="m 260,-160 q -91,0 -155.5,-63 Q 40,-286 40,-377 q 0,-78 47,-139 47,-61 123,-78 17,-72 85,-137 68,-65 145,-65 33,0 56.5,23.5 23.5,23.5 23.5,56.5 v 242 l 64,-62 56,56 -160,160 -160,-160 56,-56 64,62 v -242 q -76,14 -118,73.5 -42,59.5 -42,122.5 h -20 q -58,0 -99,41 -41,41 -41,99 0,58 41,99 41,41 99,41 h 480 q 42,0 71,-29 29,-29 29,-71 0,-42 -29,-71 -29,-29 -71,-29 h -60 v -80 q 0,-48 -22,-89.5 -22,-41.5 -58,-70.5 v -93 q 74,35 117,103.5 43,68.5 43,149.5 69,8 114.5,59.5 45.5,51.5 45.5,120.5 0,75 -52.5,127.5 Q 815,-160 740,-160 Z m 220,-358 z"
         id="path1-5"
         style="fill:#ff0000;fill-opacity:1;stroke-width:1.00346;stroke-dasharray:none" /></g></g></svg>
